<?xml version="1.0" encoding="utf-8"?>
<svg xmlns="http://www.w3.org/2000/svg">
  <defs>
    <clipPath id="clip0_1_2815">
      <rect width="280.3" height="232.5" fill="white"/>
    </clipPath>
  </defs>
  <g clip-path="url(#clip0_1_2815)" transform="matrix(1, 0, 0, 1, -9.173478, 1.05517)">
    <path d="M280.1 81.9004C280.1 81.9004 192.9 84.5004 165 41.4004H164.9C164.7 44.3004 164.5 47.0004 164.2 49.3004C162.8 64.7004 163.5 105.7 188.1 121.5C212.7 137.3 235.3 133.8 255 116.7C274.8 99.6004 279.9 99.1004 279.9 99.1004L280.1 81.9004Z" fill="#0B7C3F"/>
    <path d="M280.2 82.3V0.5L167.7 0L165 41.4C191.4 82.4 272.3 82.5 280.2 82.3Z" fill="#3CA949"/>
    <path d="M255.3 116.6C235.5 133.7 213 137.2 188.4 121.4C163.8 105.6 163.1 64.6 164.5 49.2C165.9 33.7 167.7 0 167.7 0H94.4999C94.4999 0 87.5999 108.4 143.6 122.3C199.6 136.2 245.3 131.5 280.3 160V99C280.2 99 275.1 99.5 255.3 116.6Z" fill="#6DBB44"/>
    <path d="M143.6 122.3C87.6 108.4 94.5 0 94.5 0H0C31.9 5.2 74.5 25 94 90.8C98.7 106.8 107.6 120.3 119.6 128.5C132.9 137.6 153.4 146.6 184.8 150.1C254.2 157.7 278.7 227.8 280.2 232.5V160C245.3 131.5 199.5 136.2 143.6 122.3Z" fill="#9CC84E"/>
  </g>
</svg>