<?xml version="1.0" encoding="utf-8"?>
<svg xmlns="http://www.w3.org/2000/svg">
  <g transform="matrix(1, 0, 0, 1, -546.169495, -0.80675)">
    <path d="M 684.034 -85.166 L 364.034 -85.166 L 365.647 60.72 L 684.034 58.3 L 684.034 -85.166 Z" fill="#0C8040"/>
    <path d="M 683.497 -62.741 C 683.497 -62.741 668.374 -68.232 645.13 -45.689 C 631.101 -32.084 614.186 -13.899 595.592 -6.141 C 545.743 14.659 494.013 -15.966 431.3 -22.366 C 368.587 -28.766 364.033 3.767 364.033 3.767 L 364.033 55.692 L 683.496 55.692" fill="#9FCD4F"/>
    <g>
      <path d="M 363.834 25.835 C 363.834 25.835 384.134 -20.566 446.844 -14.166 C 509.554 -7.766 546.544 25.835 596.392 5.035 C 614.986 -2.723 631.901 -15.909 645.93 -29.514 C 669.174 -52.056 684.297 -46.565 684.297 -46.565 L 685.647 60.221 L 364.034 60.221 L 363.834 25.835 Z" fill="#E8E8E8"/>
    </g>
  </g>
</svg>